<?xml version="1.0" encoding="UTF-8" standalone="no"?>
<!-- Generator: Adobe Illustrator 15.0.0, SVG Export Plug-In . SVG Version: 6.00 Build 0)  -->

<svg
   xmlns:dc="http://purl.org/dc/elements/1.1/"
   xmlns:cc="http://creativecommons.org/ns#"
   xmlns:rdf="http://www.w3.org/1999/02/22-rdf-syntax-ns#"
   xmlns:svg="http://www.w3.org/2000/svg"
   xmlns="http://www.w3.org/2000/svg"
   xmlns:sodipodi="http://sodipodi.sourceforge.net/DTD/sodipodi-0.dtd"
   xmlns:inkscape="http://www.inkscape.org/namespaces/inkscape"
   version="1.1"
   id="Layer_1"
   x="0px"
   y="0px"
   width="141px"
   height="72px"
   viewBox="0 0 141 72"
   enable-background="new 0 0 141 72"
   xml:space="preserve"
   inkscape:version="0.91 r13725"
   sodipodi:docname="NodeMCUBreadboard.svg"
   inkscape:export-filename="C:\Projects\_IoT\FritzingModels\esp8266-nodemcu-v3\NodeMCUBreadboard.png"
   inkscape:export-xdpi="357.49503"
   inkscape:export-ydpi="357.49503"><metadata
     id="metadata4263"><rdf:RDF><cc:Work
         rdf:about=""><dc:format>image/svg+xml</dc:format><dc:type
           rdf:resource="http://purl.org/dc/dcmitype/StillImage" /></cc:Work></rdf:RDF></metadata><defs
     id="defs4261" /><sodipodi:namedview
     pagecolor="#ffffff"
     bordercolor="#666666"
     borderopacity="1"
     objecttolerance="10"
     gridtolerance="10"
     guidetolerance="10"
     inkscape:pageopacity="0"
     inkscape:pageshadow="2"
     inkscape:window-width="2560"
     inkscape:window-height="1377"
     id="namedview4259"
     showgrid="false"
     inkscape:zoom="16.777778"
     inkscape:cx="59.771523"
     inkscape:cy="40.44755"
     inkscape:window-x="-8"
     inkscape:window-y="-8"
     inkscape:window-maximized="1"
     inkscape:current-layer="g3897" /><g
     id="g3897"><path
       d="M131.751-0.001H5.004C2.24-0.001,0,2.265,0,5.062v61.874c0,2.795,2.24,5.062,5.004,5.062h126.747   c2.765,0,5.007-2.268,5.007-5.062V5.061C136.758,2.265,134.516-0.001,131.751-0.001z M6.533,1.818c2.352,0,4.259,1.924,4.259,4.295   c0,2.37-1.905,4.293-4.259,4.293c-2.355,0-4.261-1.922-4.261-4.293C2.272,3.743,4.178,1.818,6.533,1.818z M6.533,70.404   c-2.355,0-4.261-1.92-4.261-4.291c0-2.373,1.905-4.299,4.261-4.299c2.352,0,4.259,1.926,4.259,4.299   C10.792,68.484,8.885,70.404,6.533,70.404z M130.55,70.404c-2.354,0-4.26-1.92-4.26-4.291c0-2.373,1.905-4.299,4.26-4.299   c2.353,0,4.259,1.926,4.259,4.299C134.809,68.484,132.902,70.404,130.55,70.404z M130.55,10.406c-2.354,0-4.26-1.923-4.26-4.293   c0-2.37,1.905-4.294,4.26-4.294c2.353,0,4.259,1.923,4.259,4.294C134.809,8.482,132.902,10.406,130.55,10.406z"
       id="path3899"
       fill="#1E2C5C" /><rect
       x="16.258"
       y="64.572"
       width="3.713"
       height="7.428"
       id="rect3901"
       fill="#454545" /><polygon
       points="14.4,66.428 16.258,64.572 16.258,71.998 14.4,70.141  "
       id="polygon3903"
       fill="#454545" /><polygon
       points="19.97,64.572 21.829,66.428 21.829,70.141 19.97,71.998  "
       id="polygon3905"
       fill="#454545" /><rect
       x="17.458"
       y="67.449"
       width="1.312"
       height="1.668"
       id="rect3907"
       fill="#B68B2D" /><rect
       x="23.458"
       y="64.572"
       width="3.713"
       height="7.428"
       id="rect3909"
       fill="#454545" /><polygon
       points="21.6,66.428 23.458,64.572 23.458,71.998 21.6,70.141  "
       id="polygon3911"
       fill="#454545" /><polygon
       points="27.17,64.572 29.029,66.428 29.029,70.141 27.17,71.998  "
       id="polygon3913"
       fill="#454545" /><rect
       x="24.658"
       y="67.449"
       width="1.312"
       height="1.668"
       id="rect3915"
       fill="#B68B2D" /><rect
       x="30.658"
       y="64.572"
       width="3.713"
       height="7.428"
       id="rect3917"
       fill="#454545" /><polygon
       points="28.8,66.428 30.658,64.572 30.658,71.998 28.8,70.141  "
       id="polygon3919"
       fill="#454545" /><polygon
       points="34.37,64.572 36.229,66.428 36.229,70.141 34.37,71.998  "
       id="polygon3921"
       fill="#454545" /><rect
       x="31.858"
       y="67.449"
       width="1.312"
       height="1.668"
       id="rect3923"
       fill="#B68B2D" /><rect
       x="37.858"
       y="64.572"
       width="3.713"
       height="7.428"
       id="rect3925"
       fill="#454545" /><polygon
       points="36,66.428 37.858,64.572 37.858,71.998 36,70.141  "
       id="polygon3927"
       fill="#454545" /><polygon
       points="41.57,64.572 43.429,66.428 43.429,70.141 41.57,71.998  "
       id="polygon3929"
       fill="#454545" /><rect
       x="39.059"
       y="67.449"
       width="1.312"
       height="1.668"
       id="rect3931"
       fill="#B68B2D" /><rect
       x="45.058"
       y="64.572"
       width="3.713"
       height="7.428"
       id="rect3933"
       fill="#454545" /><polygon
       points="43.2,66.428 45.058,64.572 45.058,71.998 43.2,70.141  "
       id="polygon3935"
       fill="#454545" /><polygon
       points="48.77,64.572 50.629,66.428 50.629,70.141 48.77,71.998  "
       id="polygon3937"
       fill="#454545" /><rect
       x="46.258"
       y="67.449"
       width="1.312"
       height="1.668"
       id="rect3939"
       fill="#B68B2D" /><rect
       x="52.258"
       y="64.572"
       width="3.713"
       height="7.428"
       id="rect3941"
       fill="#454545" /><polygon
       points="50.4,66.428 52.258,64.572 52.258,71.998 50.4,70.141  "
       id="polygon3943"
       fill="#454545" /><polygon
       points="55.97,64.572 57.829,66.428 57.829,70.141 55.97,71.998  "
       id="polygon3945"
       fill="#454545" /><rect
       x="53.458"
       y="67.449"
       width="1.312"
       height="1.668"
       id="rect3947"
       fill="#B68B2D" /><rect
       x="59.458"
       y="64.572"
       width="3.713"
       height="7.428"
       id="rect3949"
       fill="#454545" /><polygon
       points="57.601,66.428 59.458,64.572 59.458,71.998 57.601,70.141  "
       id="polygon3951"
       fill="#454545" /><polygon
       points="63.17,64.572 65.029,66.428 65.029,70.141 63.17,71.998  "
       id="polygon3953"
       fill="#454545" /><rect
       x="60.659"
       y="67.449"
       width="1.312"
       height="1.668"
       id="rect3955"
       fill="#B68B2D" /><rect
       x="66.659"
       y="64.572"
       width="3.713"
       height="7.428"
       id="rect3957"
       fill="#454545" /><polygon
       points="64.801,66.428 66.659,64.572 66.659,71.998 64.801,70.141  "
       id="polygon3959"
       fill="#454545" /><polygon
       points="70.371,64.572 72.229,66.428 72.229,70.141 70.371,71.998  "
       id="polygon3961"
       fill="#454545" /><rect
       x="67.859"
       y="67.449"
       width="1.312"
       height="1.668"
       id="rect3963"
       fill="#B68B2D" /><rect
       x="73.857"
       y="64.572"
       width="3.713"
       height="7.428"
       id="rect3965"
       fill="#454545" /><polygon
       points="72,66.428 73.857,64.572 73.857,71.998 72,70.141  "
       id="polygon3967"
       fill="#454545" /><polygon
       points="77.568,64.572 79.43,66.428 79.43,70.141 77.568,71.998  "
       id="polygon3969"
       fill="#454545" /><rect
       x="75.059"
       y="67.449"
       width="1.312"
       height="1.668"
       id="rect3971"
       fill="#B68B2D" /><rect
       x="81.059"
       y="64.572"
       width="3.713"
       height="7.428"
       id="rect3973"
       fill="#454545" /><polygon
       points="79.2,66.428 81.059,64.572 81.059,71.998 79.2,70.141  "
       id="polygon3975"
       fill="#454545" /><polygon
       points="84.771,64.572 86.63,66.428 86.63,70.141 84.771,71.998  "
       id="polygon3977"
       fill="#454545" /><rect
       x="82.259"
       y="67.449"
       width="1.312"
       height="1.668"
       id="rect3979"
       fill="#B68B2D" /><rect
       x="88.259"
       y="64.572"
       width="3.714"
       height="7.428"
       id="rect3981"
       fill="#454545" /><polygon
       points="86.4,66.428 88.259,64.572 88.259,71.998 86.4,70.141  "
       id="polygon3983"
       fill="#454545" /><polygon
       points="91.971,64.572 93.829,66.428 93.829,70.141 91.971,71.998  "
       id="polygon3985"
       fill="#454545" /><rect
       x="89.458"
       y="67.449"
       width="1.312"
       height="1.668"
       id="rect3987"
       fill="#B68B2D" /><rect
       x="95.458"
       y="64.572"
       width="3.713"
       height="7.428"
       id="rect3989"
       fill="#454545" /><polygon
       points="93.602,66.428 95.458,64.572 95.458,71.998 93.602,70.141  "
       id="polygon3991"
       fill="#454545" /><polygon
       points="99.171,64.572 101.029,66.428 101.029,70.141 99.171,71.998  "
       id="polygon3993"
       fill="#454545" /><rect
       x="96.659"
       y="67.449"
       width="1.312"
       height="1.668"
       id="rect3995"
       fill="#B68B2D" /><rect
       x="102.659"
       y="64.572"
       width="3.713"
       height="7.428"
       id="rect3997"
       fill="#454545" /><polygon
       points="100.8,66.428 102.659,64.572 102.659,71.998 100.8,70.141  "
       id="polygon3999"
       fill="#454545" /><polygon
       points="106.37,64.572 108.229,66.428 108.229,70.141 106.37,71.998  "
       id="polygon4001"
       fill="#454545" /><rect
       x="103.857"
       y="67.449"
       width="1.312"
       height="1.668"
       id="rect4003"
       fill="#B68B2D" /><rect
       x="109.857"
       y="64.572"
       width="3.713"
       height="7.428"
       id="rect4005"
       fill="#454545" /><polygon
       points="108.001,66.428 109.857,64.572 109.857,71.998 108.001,70.141  "
       id="polygon4007"
       fill="#454545" /><polygon
       points="113.57,64.572 115.43,66.428 115.43,70.141 113.57,71.998  "
       id="polygon4009"
       fill="#454545" /><rect
       x="111.061"
       y="67.449"
       width="1.312"
       height="1.668"
       id="rect4011"
       fill="#B68B2D" /><rect
       x="117.061"
       y="64.572"
       width="3.713"
       height="7.428"
       id="rect4013"
       fill="#454545" /><polygon
       points="115.2,66.428 117.061,64.572 117.061,71.998 115.2,70.141  "
       id="polygon4015"
       fill="#454545" /><polygon
       points="120.771,64.572 122.63,66.428 122.63,70.141 120.771,71.998  "
       id="polygon4017"
       fill="#454545" /><rect
       x="118.259"
       y="67.449"
       width="1.312"
       height="1.668"
       id="rect4019"
       fill="#B68B2D" /><rect
       x="16.028"
       y="-0.001"
       width="3.713"
       height="7.427"
       id="rect4021"
       fill="#454545" /><polygon
       points="14.17,1.854 16.028,-0.001 16.028,7.425 14.17,5.566  "
       id="polygon4023"
       fill="#454545" /><polygon
       points="19.74,-0.001 21.599,1.854 21.599,5.566 19.74,7.425  "
       id="polygon4025"
       fill="#454545" /><rect
       x="17.228"
       y="2.875"
       width="1.312"
       height="1.668"
       id="rect4027"
       fill="#B68B2D" /><rect
       x="23.228"
       y="-0.001"
       width="3.713"
       height="7.427"
       id="rect4029"
       fill="#454545" /><polygon
       points="21.37,1.854 23.228,-0.001 23.228,7.425 21.37,5.566  "
       id="polygon4031"
       fill="#454545" /><polygon
       points="26.94,-0.001 28.799,1.854 28.799,5.566 26.94,7.425  "
       id="polygon4033"
       fill="#454545" /><rect
       x="24.428"
       y="2.875"
       width="1.312"
       height="1.668"
       id="rect4035"
       fill="#B68B2D" /><rect
       x="30.428"
       y="-0.001"
       width="3.713"
       height="7.427"
       id="rect4037"
       fill="#454545" /><polygon
       points="28.57,1.854 30.428,-0.001 30.428,7.425 28.57,5.566  "
       id="polygon4039"
       fill="#454545" /><polygon
       points="34.14,-0.001 35.999,1.854 35.999,5.566 34.14,7.425  "
       id="polygon4041"
       fill="#454545" /><rect
       x="31.628"
       y="2.875"
       width="1.312"
       height="1.668"
       id="rect4043"
       fill="#B68B2D" /><rect
       x="37.628"
       y="-0.001"
       width="3.713"
       height="7.427"
       id="rect4045"
       fill="#454545" /><polygon
       points="35.771,1.854 37.628,-0.001 37.628,7.425 35.771,5.566  "
       id="polygon4047"
       fill="#454545" /><polygon
       points="41.34,-0.001 43.199,1.854 43.199,5.566 41.34,7.425  "
       id="polygon4049"
       fill="#454545" /><rect
       x="38.829"
       y="2.875"
       width="1.312"
       height="1.668"
       id="rect4051"
       fill="#B68B2D" /><rect
       x="44.828"
       y="-0.001"
       width="3.713"
       height="7.427"
       id="rect4053"
       fill="#454545" /><polygon
       points="42.97,1.854 44.828,-0.001 44.828,7.425 42.97,5.566  "
       id="polygon4055"
       fill="#454545" /><polygon
       points="48.54,-0.001 50.399,1.854 50.399,5.566 48.54,7.425  "
       id="polygon4057"
       fill="#454545" /><rect
       x="46.028"
       y="2.875"
       width="1.312"
       height="1.668"
       id="rect4059"
       fill="#B68B2D" /><rect
       x="52.028"
       y="-0.001"
       width="3.713"
       height="7.427"
       id="rect4061"
       fill="#454545" /><polygon
       points="50.17,1.854 52.028,-0.001 52.028,7.425 50.17,5.566  "
       id="polygon4063"
       fill="#454545" /><polygon
       points="55.74,-0.001 57.599,1.854 57.599,5.566 55.74,7.425  "
       id="polygon4065"
       fill="#454545" /><rect
       x="53.229"
       y="2.875"
       width="1.312"
       height="1.668"
       id="rect4067"
       fill="#B68B2D" /><rect
       x="59.229"
       y="-0.001"
       width="3.712"
       height="7.427"
       id="rect4069"
       fill="#454545" /><polygon
       points="57.371,1.854 59.229,-0.001 59.229,7.425 57.371,5.566  "
       id="polygon4071"
       fill="#454545" /><polygon
       points="62.939,-0.001 64.799,1.854 64.799,5.566 62.939,7.425  "
       id="polygon4073"
       fill="#454545" /><rect
       x="60.43"
       y="2.875"
       width="1.312"
       height="1.668"
       id="rect4075"
       fill="#B68B2D" /><rect
       x="66.43"
       y="-0.001"
       width="3.713"
       height="7.427"
       id="rect4077"
       fill="#454545" /><polygon
       points="64.57,1.854 66.43,-0.001 66.43,7.425 64.57,5.566  "
       id="polygon4079"
       fill="#454545" /><polygon
       points="70.141,-0.001 71.999,1.854 71.999,5.566 70.141,7.425  "
       id="polygon4081"
       fill="#454545" /><rect
       x="67.629"
       y="2.875"
       width="1.312"
       height="1.668"
       id="rect4083"
       fill="#B68B2D" /><rect
       x="73.628"
       y="-0.001"
       width="3.713"
       height="7.427"
       id="rect4085"
       fill="#454545" /><polygon
       points="71.771,1.854 73.628,-0.001 73.628,7.425 71.771,5.566  "
       id="polygon4087"
       fill="#454545" /><polygon
       points="77.34,-0.001 79.197,1.854 79.197,5.566 77.34,7.425  "
       id="polygon4089"
       fill="#454545" /><rect
       x="74.828"
       y="2.875"
       width="1.312"
       height="1.668"
       id="rect4091"
       fill="#B68B2D" /><rect
       x="80.828"
       y="-0.001"
       width="3.713"
       height="7.427"
       id="rect4093"
       fill="#454545" /><polygon
       points="78.971,1.854 80.828,-0.001 80.828,7.425 78.971,5.566  "
       id="polygon4095"
       fill="#454545" /><polygon
       points="84.54,-0.001 86.398,1.854 86.398,5.566 84.54,7.425  "
       id="polygon4097"
       fill="#454545" /><rect
       x="82.027"
       y="2.875"
       width="1.312"
       height="1.668"
       id="rect4099"
       fill="#B68B2D" /><rect
       x="88.027"
       y="-0.001"
       width="3.714"
       height="7.427"
       id="rect4101"
       fill="#454545" /><polygon
       points="86.171,1.854 88.027,-0.001 88.027,7.425 86.171,5.566  "
       id="polygon4103"
       fill="#454545" /><polygon
       points="91.74,-0.001 93.6,1.854 93.6,5.566 91.74,7.425  "
       id="polygon4105"
       fill="#454545" /><rect
       x="89.229"
       y="2.875"
       width="1.312"
       height="1.668"
       id="rect4107"
       fill="#B68B2D" /><rect
       x="95.229"
       y="-0.001"
       width="3.713"
       height="7.427"
       id="rect4109"
       fill="#454545" /><polygon
       points="93.37,1.854 95.229,-0.001 95.229,7.425 93.37,5.566  "
       id="polygon4111"
       fill="#454545" /><polygon
       points="98.939,-0.001 100.8,1.854 100.8,5.566 98.939,7.425  "
       id="polygon4113"
       fill="#454545" /><rect
       x="96.43"
       y="2.875"
       width="1.312"
       height="1.668"
       id="rect4115"
       fill="#B68B2D" /><rect
       x="102.43"
       y="-0.001"
       width="3.713"
       height="7.427"
       id="rect4117"
       fill="#454545" /><polygon
       points="100.57,1.854 102.43,-0.001 102.43,7.425 100.57,5.566  "
       id="polygon4119"
       fill="#454545" /><polygon
       points="106.141,-0.001 107.999,1.854 107.999,5.566 106.141,7.425  "
       id="polygon4121"
       fill="#454545" /><rect
       x="103.628"
       y="2.875"
       width="1.312"
       height="1.668"
       id="rect4123"
       fill="#B68B2D" /><rect
       x="109.628"
       y="-0.001"
       width="3.713"
       height="7.427"
       id="rect4125"
       fill="#454545" /><polygon
       points="107.771,1.854 109.628,-0.001 109.628,7.425 107.771,5.566  "
       id="polygon4127"
       fill="#454545" /><polygon
       points="113.341,-0.001 115.199,1.854 115.199,5.566 113.341,7.425  "
       id="polygon4129"
       fill="#454545" /><rect
       x="110.829"
       y="2.875"
       width="1.312"
       height="1.668"
       id="rect4131"
       fill="#B68B2D" /><rect
       x="116.829"
       y="-0.001"
       width="3.713"
       height="7.427"
       id="rect4133"
       fill="#454545" /><polygon
       points="114.971,1.854 116.829,-0.001 116.829,7.425 114.971,5.566  "
       id="polygon4135"
       fill="#454545" /><polygon
       points="120.54,-0.001 122.398,1.854 122.398,5.566 120.54,7.425  "
       id="polygon4137"
       fill="#454545" /><rect
       x="118.027"
       y="2.875"
       width="1.312"
       height="1.668"
       id="rect4139"
       fill="#B68B2D" /><text
       font-size="2.5"
       id="text4141"
       x="16.050455"
       y="10.7676"
       style="font-size:2.5px;font-family:OCRA;fill:#ffffff">D0</text>
<text
       font-size="2.5"
       id="text4143"
       x="23.591793"
       y="10.60827"
       style="font-size:2.54636264px;font-family:OCRA;fill:#ffffff"
       transform="scale(0.98179261,1.018545)">D1</text>
<text
       font-size="2.5"
       id="text4145"
       x="30.751574"
       y="10.700179"
       style="font-size:2.52449059px;font-family:OCRA;fill:#ffffff"
       transform="scale(0.99029881,1.0097962)">D2</text>
<text
       font-size="2.5"
       id="text4147"
       x="37.611519"
       y="10.770914"
       style="font-size:2.49913454px;font-family:OCRA;fill:#ffffff"
       transform="scale(1.0003463,0.99965384)">D3</text>
<text
       font-size="2.5"
       id="text4149"
       x="45.703121"
       y="10.590503"
       style="font-size:2.55063438px;font-family:OCRA;fill:#ffffff"
       transform="scale(0.98014835,1.0202537)">D4</text>
<text
       font-size="2.5"
       id="text4151"
       x="51.242641"
       y="10.767159"
       style="font-size:2.5px;font-family:OCRA;fill:#ffffff">3V3</text>
<text
       font-size="2.5"
       id="text4153"
       x="58.387695"
       y="10.752358"
       style="font-size:2.50398254px;font-family:OCRA;fill:#ffffff"
       transform="scale(0.9984095,1.001593)">GND</text>
<text
       font-size="2.5"
       id="text4155"
       x="67.020103"
       y="10.662404"
       style="font-size:2.52449059px;font-family:OCRA;fill:#ffffff"
       transform="scale(0.99029881,1.0097962)">D5</text>
<text
       font-size="2.5"
       id="text4157"
       x="73.646606"
       y="10.758861"
       style="font-size:2.50155497px;font-family:OCRA;fill:#ffffff"
       transform="scale(0.99937836,1.000622)">D6</text>
<text
       font-size="2.5"
       id="text4159"
       x="82.530182"
       y="10.590503"
       style="font-size:2.55063438px;font-family:OCRA;fill:#ffffff"
       transform="scale(0.98014835,1.0202537)">D7</text>
<text
       font-size="2.5"
       id="text4161"
       x="87.803978"
       y="10.788218"
       style="font-size:2.49431467px;font-family:OCRA;fill:#ffffff"
       transform="scale(1.0022793,0.99772587)">D8</text>
<text
       font-size="2.5"
       id="text4163"
       x="96.920128"
       y="10.590503"
       style="font-size:2.55063438px;font-family:OCRA;fill:#ffffff"
       transform="scale(0.98014835,1.0202537)">RX</text>
<text
       font-size="2.5"
       id="text4165"
       x="104.3588"
       y="10.590503"
       style="font-size:2.55063438px;font-family:OCRA;fill:#ffffff"
       transform="scale(0.98014835,1.0202537)">TX</text>
<text
       font-size="2.5"
       id="text4167"
       x="108.84692"
       y="10.752358"
       style="font-size:2.50398254px;font-family:OCRA;fill:#ffffff"
       transform="scale(0.9984095,1.001593)">GND</text>
<text
       font-size="2.5"
       id="text4169"
       x="116.28215"
       y="10.770914"
       style="font-size:2.49913454px;font-family:OCRA;fill:#ffffff"
       transform="scale(1.0003463,0.99965384)">3V3</text>
<text
       transform="scale(-0.98343413,-1.0168449)"
       font-size="2.5"
       id="text4171"
       x="-122.88983"
       y="-59.895073"
       style="font-size:2.54211235px;font-family:OCRA;fill:#ffffff">Vin</text>
<text
       transform="scale(-1,-1)"
       font-size="2.5"
       id="text4173"
       x="-114.4805"
       y="-60.945415"
       style="font-size:2.5px;font-family:OCRA;fill:#ffffff">GND</text>
<text
       transform="scale(-1,-1)"
       font-size="2.5"
       id="text4175"
       x="-107.03399"
       y="-60.945415"
       style="font-size:2.5px;font-family:OCRA;fill:#ffffff">RST</text>
<text
       transform="scale(-0.98014835,-1.0202537)"
       font-size="2.5"
       id="text4177"
       x="-101.10674"
       y="-59.694958"
       style="font-size:2.55063438px;font-family:OCRA;fill:#ffffff">EN</text>
<text
       transform="scale(-1,-1)"
       font-size="2.5"
       id="text4179"
       x="-93.035202"
       y="-60.940533"
       style="font-size:2.5px;font-family:OCRA;fill:#ffffff">3V3</text>
<text
       transform="scale(-1,-1)"
       font-size="2.5"
       id="text4181"
       x="-85.886703"
       y="-60.945415"
       style="font-size:2.5px;font-family:OCRA;fill:#ffffff">GND</text>
<text
       transform="scale(-1,-1)"
       font-size="2.5"
       id="text4183"
       style="font-size:2.5px;font-family:OCRA;fill:#ffffff"
       x="-77.42704"
       y="-60.945415">SK</text>
<text
       transform="scale(-1,-1)"
       font-size="2.5"
       id="text4185"
       style="font-size:2.5px;font-family:OCRA;fill:#ffffff"
       x="-69.98053"
       y="-60.941753">S0</text>
<text
       transform="scale(-0.99776307,-1.0022419)"
       font-size="2.5"
       id="text4187"
       style="font-size:2.50560498px;font-family:OCRA;fill:#ffffff"
       x="-62.971088"
       y="-60.800797">SC</text>
<text
       transform="scale(-0.99776307,-1.0022419)"
       font-size="2.5"
       id="text4189"
       style="font-size:2.50560498px;font-family:OCRA;fill:#ffffff"
       x="-55.74683"
       y="-60.800797">S1</text>
<text
       transform="scale(-0.99905551,-1.0009454)"
       font-size="2.5"
       id="text4191"
       style="font-size:2.50236344px;font-family:OCRA;fill:#ffffff"
       x="-48.340576"
       y="-60.879467">S2</text>
<text
       transform="scale(-1,-1)"
       font-size="2.5"
       id="text4193"
       style="font-size:2.5px;font-family:OCRA;fill:#ffffff"
       x="-41.623238"
       y="-60.940533">S3</text>
<text
       transform="scale(-0.99029881,-1.0097962)"
       font-size="2.5"
       id="text4195"
       style="font-size:2.52449059px;font-family:OCRA;fill:#ffffff"
       x="-34.571815"
       y="-60.351372">VU</text>
<text
       transform="scale(-0.9984095,-1.001593)"
       font-size="2.5"
       id="text4197"
       style="font-size:2.50398254px;font-family:OCRA;fill:#ffffff"
       x="-28.38483"
       y="-60.84259">GND</text>
<text
       transform="scale(-1,-1)"
       font-size="2.5"
       id="text4199"
       x="-19.511158"
       y="-60.941399"
       style="font-size:2.5px;font-family:OCRA;fill:#ffffff">A0</text>
<rect
       x="124.133"
       y="25.099"
       width="17.333"
       height="21.833"
       id="rect4201"
       fill="#BEC0C2" /><rect
       x="123.962"
       y="13.599"
       width="7.833"
       height="8"
       id="rect4203"
       fill="#BEC0C2" /><circle
       cx="127.883"
       cy="17.683"
       r="2.75"
       id="circle4205"
       fill="#231F20" /><rect
       x="123.962"
       y="50.398"
       width="7.833"
       height="8"
       id="rect4207"
       fill="#BEC0C2" /><circle
       cx="127.883"
       cy="54.482"
       r="2.75"
       id="circle4209"
       fill="#231F20" /><text
       transform="matrix(4.489659e-11 -1 1 4.489659e-11 122.7988 21.7637)"
       font-size="2.5"
       id="text4211"
       font-family="'OCRA'"
       fill="#FFFFFF">FLASH</text>
<text
       transform="matrix(4.489659e-11 -1 1 4.489659e-11 122.7969 56.5977)"
       font-size="2.5"
       id="text4213"
       font-family="'OCRA'"
       fill="#FFFFFF">RST</text>
<rect
       x="21.133"
       y="16.432"
       width="43.5"
       height="39.033"
       id="rect4215"
       fill="#5F5758" /><rect
       x="2.362"
       y="18.767"
       width="1.312"
       height="11.834"
       id="rect4217"
       fill="#B68B2D" /><rect
       x="2.468"
       y="29.434"
       width="11.099"
       height="1.168"
       id="rect4219"
       fill="#B68B2D" /><rect
       x="2.468"
       y="33.238"
       width="11.099"
       height="1.168"
       id="rect4221"
       fill="#B68B2D" /><rect
       x="2.468"
       y="37.043"
       width="11.099"
       height="1.168"
       id="rect4223"
       fill="#B68B2D" /><rect
       x="2.468"
       y="40.848"
       width="11.099"
       height="1.168"
       id="rect4225"
       fill="#B68B2D" /><rect
       x="2.468"
       y="44.654"
       width="11.099"
       height="1.168"
       id="rect4227"
       fill="#B68B2D" /><rect
       x="2.468"
       y="48.457"
       width="11.099"
       height="1.168"
       id="rect4229"
       fill="#B68B2D" /><rect
       x="12.255"
       y="29.434"
       width="1.312"
       height="4.973"
       id="rect4231"
       fill="#B68B2D" /><rect
       x="2.468"
       y="34.043"
       width="1.312"
       height="4.168"
       id="rect4233"
       fill="#B68B2D" /><rect
       x="12.255"
       y="37.043"
       width="1.312"
       height="4.973"
       id="rect4235"
       fill="#B68B2D" /><rect
       x="2.468"
       y="40.848"
       width="1.312"
       height="4.976"
       id="rect4237"
       fill="#B68B2D" /><rect
       x="12.255"
       y="44.654"
       width="1.312"
       height="4.973"
       id="rect4239"
       fill="#B68B2D" /><rect
       x="2.599"
       y="48.41"
       width="1.312"
       height="5.992"
       id="rect4241"
       fill="#B68B2D" /><rect
       x="3.018"
       y="53.234"
       width="18.582"
       height="1.168"
       id="rect4243"
       fill="#B68B2D" /><rect
       x="16.495"
       y="30.018"
       width="1.312"
       height="24.312"
       id="rect4245"
       fill="#B68B2D" /><rect
       x="107.766"
       y="25.857"
       width="9.209"
       height="8.264"
       id="rect4247"
       fill="#524B4C" /><rect
       x="70.453"
       y="23.773"
       width="15.945"
       height="6.217"
       id="rect4249"
       fill="#4D4648" /><text
       xml:space="preserve"
       style="font-style:normal;font-weight:normal;font-size:40px;line-height:125%;font-family:sans-serif;letter-spacing:0px;word-spacing:0px;fill:#000000;fill-opacity:1;stroke:none;stroke-width:1px;stroke-linecap:butt;stroke-linejoin:miter;stroke-opacity:1"
       x="71.403976"
       y="46.251656"
       id="text4265"
       sodipodi:linespacing="125%"><tspan
         sodipodi:role="line"
         id="tspan4267"
         x="71.403976"
         y="46.251656"
         style="font-style:normal;font-variant:normal;font-weight:normal;font-stretch:normal;font-size:3.75px;font-family:sans-serif;-inkscape-font-specification:sans-serif;fill:#ffffff">Lolin</tspan></text>
</g><text
     transform="translate(71.0703,41.374)"
     id="text4251"><tspan
       x="0"
       y="0"
       font-size="7"
       id="tspan4253"
       style="font-size:7px;font-family:OCRA;fill:#ffffff">NodeMcu v3</tspan></text>
<text
     transform="translate(70.083,18.7642)"
     font-size="4"
     id="text4257"
     style="font-size:4px;font-family:OCRA;fill:#ffffff" />
</svg>